%TF.GenerationSoftware,KiCad,Pcbnew,8.0.1*%
%TF.CreationDate,2024-06-04T22:59:00-05:00*%
%TF.ProjectId,hw10,68773130-2e6b-4696-9361-645f70636258,rev?*%
%TF.SameCoordinates,Original*%
%TF.FileFunction,Legend,Top*%
%TF.FilePolarity,Positive*%
%FSLAX46Y46*%
G04 Gerber Fmt 4.6, Leading zero omitted, Abs format (unit mm)*
G04 Created by KiCad (PCBNEW 8.0.1) date 2024-06-04 22:59:00*
%MOMM*%
%LPD*%
G01*
G04 APERTURE LIST*
%ADD10C,0.150000*%
%ADD11C,0.120000*%
G04 APERTURE END LIST*
D10*
X109333333Y-104534819D02*
X109000000Y-104058628D01*
X108761905Y-104534819D02*
X108761905Y-103534819D01*
X108761905Y-103534819D02*
X109142857Y-103534819D01*
X109142857Y-103534819D02*
X109238095Y-103582438D01*
X109238095Y-103582438D02*
X109285714Y-103630057D01*
X109285714Y-103630057D02*
X109333333Y-103725295D01*
X109333333Y-103725295D02*
X109333333Y-103868152D01*
X109333333Y-103868152D02*
X109285714Y-103963390D01*
X109285714Y-103963390D02*
X109238095Y-104011009D01*
X109238095Y-104011009D02*
X109142857Y-104058628D01*
X109142857Y-104058628D02*
X108761905Y-104058628D01*
X110285714Y-104534819D02*
X109714286Y-104534819D01*
X110000000Y-104534819D02*
X110000000Y-103534819D01*
X110000000Y-103534819D02*
X109904762Y-103677676D01*
X109904762Y-103677676D02*
X109809524Y-103772914D01*
X109809524Y-103772914D02*
X109714286Y-103820533D01*
X85281905Y-100269819D02*
X85281905Y-99269819D01*
X85281905Y-99269819D02*
X85520000Y-99269819D01*
X85520000Y-99269819D02*
X85662857Y-99317438D01*
X85662857Y-99317438D02*
X85758095Y-99412676D01*
X85758095Y-99412676D02*
X85805714Y-99507914D01*
X85805714Y-99507914D02*
X85853333Y-99698390D01*
X85853333Y-99698390D02*
X85853333Y-99841247D01*
X85853333Y-99841247D02*
X85805714Y-100031723D01*
X85805714Y-100031723D02*
X85758095Y-100126961D01*
X85758095Y-100126961D02*
X85662857Y-100222200D01*
X85662857Y-100222200D02*
X85520000Y-100269819D01*
X85520000Y-100269819D02*
X85281905Y-100269819D01*
X86805714Y-100269819D02*
X86234286Y-100269819D01*
X86520000Y-100269819D02*
X86520000Y-99269819D01*
X86520000Y-99269819D02*
X86424762Y-99412676D01*
X86424762Y-99412676D02*
X86329524Y-99507914D01*
X86329524Y-99507914D02*
X86234286Y-99555533D01*
X89194285Y-55446009D02*
X89337142Y-55493628D01*
X89337142Y-55493628D02*
X89384761Y-55541247D01*
X89384761Y-55541247D02*
X89432380Y-55636485D01*
X89432380Y-55636485D02*
X89432380Y-55779342D01*
X89432380Y-55779342D02*
X89384761Y-55874580D01*
X89384761Y-55874580D02*
X89337142Y-55922200D01*
X89337142Y-55922200D02*
X89241904Y-55969819D01*
X89241904Y-55969819D02*
X88860952Y-55969819D01*
X88860952Y-55969819D02*
X88860952Y-54969819D01*
X88860952Y-54969819D02*
X89194285Y-54969819D01*
X89194285Y-54969819D02*
X89289523Y-55017438D01*
X89289523Y-55017438D02*
X89337142Y-55065057D01*
X89337142Y-55065057D02*
X89384761Y-55160295D01*
X89384761Y-55160295D02*
X89384761Y-55255533D01*
X89384761Y-55255533D02*
X89337142Y-55350771D01*
X89337142Y-55350771D02*
X89289523Y-55398390D01*
X89289523Y-55398390D02*
X89194285Y-55446009D01*
X89194285Y-55446009D02*
X88860952Y-55446009D01*
X89718095Y-54969819D02*
X90289523Y-54969819D01*
X90003809Y-55969819D02*
X90003809Y-54969819D01*
X91146666Y-55969819D02*
X90575238Y-55969819D01*
X90860952Y-55969819D02*
X90860952Y-54969819D01*
X90860952Y-54969819D02*
X90765714Y-55112676D01*
X90765714Y-55112676D02*
X90670476Y-55207914D01*
X90670476Y-55207914D02*
X90575238Y-55255533D01*
X93916779Y-75968866D02*
X94678684Y-75968866D01*
X93916779Y-63088866D02*
X94678684Y-63088866D01*
X94297731Y-63469819D02*
X94297731Y-62707914D01*
D11*
%TO.C,R1*%
X107580000Y-106920000D02*
X111420000Y-106920000D01*
X107580000Y-105080000D02*
X111420000Y-105080000D01*
%TO.C,D1*%
X87730000Y-109785000D02*
X87730000Y-108065000D01*
X87730000Y-108065000D02*
X84310000Y-108065000D01*
X87290000Y-108065000D02*
X87290000Y-108065000D01*
X87290000Y-108065000D02*
X87290000Y-102855000D01*
X87290000Y-102855000D02*
X87290000Y-108065000D01*
X87290000Y-102855000D02*
X87290000Y-102855000D01*
X86980000Y-111185000D02*
X86980000Y-109785000D01*
X86980000Y-109785000D02*
X85060000Y-109785000D01*
X85060000Y-111185000D02*
X86980000Y-111185000D01*
X85060000Y-109785000D02*
X85060000Y-111185000D01*
X84750000Y-108065000D02*
X84750000Y-108065000D01*
X84750000Y-108065000D02*
X84750000Y-102855000D01*
X84750000Y-102855000D02*
X84750000Y-108065000D01*
X84750000Y-102855000D02*
X84750000Y-102855000D01*
X84550000Y-108065000D02*
X84550000Y-109785000D01*
X84430000Y-108065000D02*
X84430000Y-109785000D01*
X84310000Y-109785000D02*
X87730000Y-109785000D01*
X84310000Y-108065000D02*
X84310000Y-109785000D01*
%TO.C,BT1*%
X143080000Y-85295000D02*
X143080000Y-53705000D01*
X143080000Y-85295000D02*
X93520000Y-85295000D01*
X143080000Y-53705000D02*
X93520000Y-53705000D01*
X93520000Y-85295000D02*
X93520000Y-82395000D01*
X93520000Y-82395000D02*
X87920000Y-82395000D01*
X93520000Y-57805000D02*
X87920000Y-57805000D01*
X93520000Y-53705000D02*
X93520000Y-57805000D01*
X87920000Y-82395000D02*
X87920000Y-77715000D01*
X87920000Y-65665000D02*
X87920000Y-74015000D01*
X87920000Y-57805000D02*
X87920000Y-60365000D01*
X87580000Y-57465000D02*
X90580000Y-57465000D01*
X87580000Y-57465000D02*
X87580000Y-60465000D01*
%TD*%
M02*
